<!-- <svg xmlns="http://www.w3.org/2000/svg" width="24" height="24" viewBox="0 0 24 24"><g data-name="Layer 2"><path d="M12 1A10.89 10.89 0 0 0 1 11.77 10.79 10.79 0 0 0 8.52 22c.55.1.75-.23.75-.52v-1.83c-3.06.65-3.71-1.44-3.71-1.44a2.86 2.86 0 0 0-1.22-1.58c-1-.66.08-.65.08-.65a2.31 2.31 0 0 1 1.68 1.11 2.37 2.37 0 0 0 3.2.89 2.33 2.33 0 0 1 .7-1.44c-2.44-.27-5-1.19-5-5.32a4.15 4.15 0 0 1 1.11-2.91 3.78 3.78 0 0 1 .11-2.84s.93-.29 3 1.1a10.68 10.68 0 0 1 5.5 0c2.1-1.39 3-1.1 3-1.1a3.78 3.78 0 0 1 .11 2.84A4.15 4.15 0 0 1 19 11.2c0 4.14-2.58 5.05-5 5.32a2.5 2.5 0 0 1 .75 2v2.95c0 .35.2.63.75.52A10.8 10.8 0 0 0 23 11.77 10.89 10.89 0 0 0 12 1" data-name="github"/></g></svg> -->

<!-- <svg xmlns="http://www.w3.org/2000/svg" width="24" height="24" viewBox="0 0 24 24"><path fill="#ff7964" stroke="#ff7964" d="M16.24 22a1 1 0 0 1-1-1v-2.6a2.15 2.15 0 0 0-.54-1.66 1 1 0 0 1 .61-1.67C17.75 14.78 20 14 20 9.77a4 4 0 0 0-.67-2.22 2.75 2.75 0 0 1-.41-2.06 3.71 3.71 0 0 0 0-1.41 7.65 7.65 0 0 0-2.09 1.09 1 1 0 0 1-.84.15 10.15 10.15 0 0 0-5.52 0 1 1 0 0 1-.84-.15 7.4 7.4 0 0 0-2.11-1.09 3.52 3.52 0 0 0 0 1.41 2.84 2.84 0 0 1-.43 2.08 4.07 4.07 0 0 0-.67 2.23c0 3.89 1.88 4.93 4.7 5.29a1 1 0 0 1 .82.66 1 1 0 0 1-.21 1 2.06 2.06 0 0 0-.55 1.56V21a1 1 0 0 1-2 0v-.57a6 6 0 0 1-5.27-2.09 3.9 3.9 0 0 0-1.16-.88 1 1 0 1 1 .5-1.94 4.93 4.93 0 0 1 2 1.36c1 1 2 1.88 3.9 1.52a3.89 3.89 0 0 1 .23-1.58c-2.06-.52-5-2-5-7a6 6 0 0 1 1-3.33.85.85 0 0 0 .13-.62 5.69 5.69 0 0 1 .33-3.21 1 1 0 0 1 .63-.57c.34-.1 1.56-.3 3.87 1.2a12.16 12.16 0 0 1 5.69 0c2.31-1.5 3.53-1.31 3.86-1.2a1 1 0 0 1 .63.57 5.71 5.71 0 0 1 .33 3.22.75.75 0 0 0 .11.57 6 6 0 0 1 1 3.34c0 5.07-2.92 6.54-5 7a4.28 4.28 0 0 1 .22 1.67V21a1 1 0 0 1-.94 1z" data-name="Layer 2"/></svg> -->

<svg xmlns="http://www.w3.org/2000/svg" width="24" height="24" baseProfile="tiny" version="1.2" viewBox="0 0 24 24"><path fill="#ff7964" stroke="#ff7964" d="M12 21c-4.963 0-9-4.038-9-9s4.037-9 9-9 9 4.038 9 9-4.037 9-9 9zm0-16c-3.859 0-7 3.14-7 7s3.141 7 7 7 7-3.14 7-7-3.141-7-7-7zM13.565 12.626c.171 0 .316.084.441.255.124.169.187.378.187.625 0 .248-.062.457-.187.626-.125.169-.271.254-.441.254-.181 0-.337-.084-.461-.254-.124-.169-.187-.378-.187-.626s.062-.456.187-.625c.125-.171.281-.255.461-.255m2.21-2.289c.482.522.725 1.155.725 1.898 0 .482-.057.915-.166 1.301-.111.384-.252.698-.42.939-.171.242-.378.454-.627.635-.249.184-.478.316-.685.401-.208.085-.446.15-.716.196-.266.047-.467.072-.606.079l-.44.009-.352.01-.488.011-.488-.011-.352-.01-.44-.009c-.14-.007-.341-.032-.606-.079-.271-.045-.508-.11-.716-.196-.207-.084-.436-.217-.684-.401-.25-.182-.457-.394-.628-.635-.168-.241-.309-.555-.42-.939-.109-.386-.166-.819-.166-1.301 0-.743.242-1.376.725-1.898-.053-.026-.056-.286-.008-.782.043-.496.148-.953.319-1.37.602.064 1.343.404 2.23 1.017.3-.078.71-.118 1.233-.118.549 0 .959.04 1.234.118.404-.273.791-.496 1.16-.666.374-.168.644-.267.814-.293l.254-.058c.172.417.277.875.32 1.37.05.496.047.756-.006.782m-3.754 5.027c1.083 0 1.899-.129 2.454-.39.553-.26.833-.796.833-1.605 0-.469-.176-.861-.529-1.174-.181-.17-.394-.273-.638-.313-.238-.039-.607-.039-1.104 0-.495.04-.834.058-1.016.058-.248 0-.517-.013-.851-.039l-.783-.049c-.191-.006-.395.018-.616.069-.223.053-.404.143-.55.273-.336.3-.507.691-.507 1.174 0 .809.274 1.345.821 1.605.547.261 1.361.39 2.444.39m-1.524-2.737c.17 0 .316.084.44.255.124.169.187.378.187.625 0 .248-.062.457-.187.626-.124.169-.271.254-.44.254-.182 0-.337-.084-.462-.254-.124-.169-.187-.378-.187-.626s.062-.456.187-.625c.125-.171.28-.255.462-.255"/></svg>
